# xmcd CD database file
#
# Track frame offsets:
#	150
#	12480
#	25113
#	34808
#	50660
#	62968
#	76185
#	86758
#	99775
#	114463
#	126055
#	137020
#	149403
#	160743
#
# Disc length: 2338 seconds
#
# Revision: 0
# Processed by: cddbd v1.4PL0 Copyright (c) Steve Scherf et al.
# Submitted via: CDex 1.50beta9
#
DISCID=b509200e
DTITLE=DECLAN NERNEY - WALKIN' ON NEW GRASS
DYEAR=1900
DGENRE=Country
TTITLE0=Walkin' On New Grass
TTITLE1=Among The Wicklow Hills
TTITLE2=I Found My Girl In The USA
TTITLE3=Give An Irish Girl To Me
TTITLE4=North To Alaska
TTITLE5=Just Call Me Lonesome From Now On
TTITLE6=Stand At Your Window
TTITLE7=Crazy Dreams
TTITLE8=Tipperary On My Mind
TTITLE9=Never Again Will I Knock On Your Door
TTITLE10=I Still Miss Someone
TTITLE11=I'd Rather Love And Lose You
TTITLE12=A World Of Our Own
TTITLE13=Molly Bawn
EXTD=
EXTT0=
EXTT1=
EXTT2=
EXTT3=
EXTT4=
EXTT5=
EXTT6=
EXTT7=
EXTT8=
EXTT9=
EXTT10=
EXTT11=
EXTT12=
EXTT13=
PLAYORDER=
